<svg width="80" height="94" viewBox="0 0 80 94" fill="none" xmlns="http://www.w3.org/2000/svg">
<path d="M44 6H36C28.268 6 22 12.268 22 20C22 27.732 28.268 34 36 34H44C51.732 34 58 27.732 58 20C58 12.268 51.732 6 44 6Z" fill="#1B9D7A"/>
<path d="M36 34L40 40L44 34H36Z" fill="#1B9D7A"/>
<path d="M28.2707 14.5455H30.5097L32.6656 18.6172H32.7579L34.9138 14.5455H37.1528L33.7043 20.6577V24H31.7192V20.6577L28.2707 14.5455ZM39.9261 24.1385C39.209 24.1385 38.5889 23.9862 38.0657 23.6815C37.5456 23.3737 37.1439 22.9459 36.8608 22.3981C36.5777 21.8472 36.4361 21.2086 36.4361 20.4822C36.4361 19.7498 36.5777 19.1096 36.8608 18.5618C37.1439 18.0109 37.5456 17.5831 38.0657 17.2784C38.5889 16.9706 39.209 16.8168 39.9261 16.8168C40.6432 16.8168 41.2618 16.9706 41.782 17.2784C42.3052 17.5831 42.7083 18.0109 42.9915 18.5618C43.2746 19.1096 43.4162 19.7498 43.4162 20.4822C43.4162 21.2086 43.2746 21.8472 42.9915 22.3981C42.7083 22.9459 42.3052 23.3737 41.782 23.6815C41.2618 23.9862 40.6432 24.1385 39.9261 24.1385ZM39.9354 22.6151C40.2616 22.6151 40.534 22.5227 40.7525 22.3381C40.971 22.1503 41.1357 21.8949 41.2464 21.5717C41.3603 21.2486 41.4173 20.8808 41.4173 20.4684C41.4173 20.056 41.3603 19.6882 41.2464 19.3651C41.1357 19.0419 40.971 18.7865 40.7525 18.5987C40.534 18.411 40.2616 18.3171 39.9354 18.3171C39.6061 18.3171 39.3291 18.411 39.1044 18.5987C38.8828 18.7865 38.7151 19.0419 38.6012 19.3651C38.4904 19.6882 38.435 20.056 38.435 20.4684C38.435 20.8808 38.4904 21.2486 38.6012 21.5717C38.7151 21.8949 38.8828 22.1503 39.1044 22.3381C39.3291 22.5227 39.6061 22.6151 39.9354 22.6151ZM49.2422 20.9808V16.9091H51.2088V24H49.3207V22.712H49.2468C49.0868 23.1275 48.8205 23.4614 48.4482 23.7138C48.0788 23.9661 47.628 24.0923 47.0955 24.0923C46.6216 24.0923 46.2045 23.9846 45.8445 23.7692C45.4844 23.5537 45.2028 23.2475 44.9996 22.8505C44.7996 22.4535 44.698 21.978 44.695 21.424V16.9091H46.6616V21.0732C46.6647 21.4917 46.777 21.8226 46.9986 22.0657C47.2202 22.3088 47.5172 22.4304 47.8896 22.4304C48.1265 22.4304 48.3481 22.3765 48.5543 22.2688C48.7605 22.158 48.9267 21.9949 49.0529 21.7795C49.1822 21.564 49.2453 21.2978 49.2422 20.9808Z" fill="white"/>
<path d="M40 90C52.1503 90 62 80.1503 62 68C62 55.8497 52.1503 46 40 46C27.8497 46 18 55.8497 18 68C18 80.1503 27.8497 90 40 90Z" fill="white"/>
<path d="M40 87C50.4934 87 59 78.4934 59 68C59 57.5066 50.4934 49 40 49C29.5066 49 21 57.5066 21 68C21 78.4934 29.5066 87 40 87Z" fill="#1B9D7A"/>
<path d="M40 68.5C42.2091 68.5 44 66.7091 44 64.5C44 62.2909 42.2091 60.5 40 60.5C37.7909 60.5 36 62.2909 36 64.5C36 66.7091 37.7909 68.5 40 68.5Z" stroke="white" stroke-width="2" stroke-linecap="round" stroke-linejoin="round"/>
<path d="M32.5 76.5C32.5 72 36 69 40 69C44 69 47.5 72 47.5 76.5" stroke="white" stroke-width="2" stroke-linecap="round" stroke-linejoin="round"/>
</svg>
