<svg width="80" height="94" viewBox="0 0 80 94" fill="none" xmlns="http://www.w3.org/2000/svg">
<path d="M51 6H29C21.268 6 15 12.268 15 20C15 27.732 21.268 34 29 34H51C58.732 34 65 27.732 65 20C65 12.268 58.732 6 51 6Z" fill="#2563EB"/>
<path d="M36 34L40 40L44 34H36Z" fill="#2563EB"/>
<path d="M24.7749 24H21.4233V14.5455H24.8026C25.7536 14.5455 26.5722 14.7347 27.2585 15.1133C27.9448 15.4888 28.4727 16.0289 28.842 16.7337C29.2144 17.4384 29.4006 18.2817 29.4006 19.2635C29.4006 20.2483 29.2144 21.0947 28.842 21.8026C28.4727 22.5104 27.9418 23.0536 27.2493 23.4322C26.5599 23.8107 25.7351 24 24.7749 24ZM23.4222 22.2873H24.6918C25.2827 22.2873 25.7797 22.1826 26.1829 21.9734C26.5891 21.761 26.8938 21.4332 27.0969 20.9901C27.3031 20.5438 27.4062 19.9683 27.4062 19.2635C27.4062 18.5649 27.3031 17.994 27.0969 17.5508C26.8938 17.1076 26.5907 16.7814 26.1875 16.5721C25.7843 16.3628 25.2873 16.2582 24.6964 16.2582H23.4222V22.2873ZM30.8444 24V16.9091H32.751V18.1463H32.8248C32.9541 17.7062 33.1711 17.3738 33.4758 17.1491C33.7805 16.9214 34.1313 16.8075 34.5283 16.8075C34.6268 16.8075 34.733 16.8137 34.8469 16.826C34.9607 16.8383 35.0608 16.8552 35.1469 16.8768V18.6218C35.0546 18.5941 34.9269 18.5695 34.7638 18.5479C34.6006 18.5264 34.4514 18.5156 34.316 18.5156C34.0267 18.5156 33.7681 18.5787 33.5404 18.7049C33.3157 18.828 33.1372 19.0004 33.0049 19.2219C32.8756 19.4435 32.811 19.699 32.811 19.9883V24H30.8444ZM36.1637 24V16.9091H38.1303V24H36.1637ZM37.1516 15.995C36.8593 15.995 36.6084 15.8981 36.3991 15.7042C36.1929 15.5072 36.0898 15.2718 36.0898 14.9979C36.0898 14.727 36.1929 14.4947 36.3991 14.3008C36.6084 14.1038 36.8593 14.0053 37.1516 14.0053C37.444 14.0053 37.6933 14.1038 37.8995 14.3008C38.1088 14.4947 38.2134 14.727 38.2134 14.9979C38.2134 15.2718 38.1088 15.5072 37.8995 15.7042C37.6933 15.8981 37.444 15.995 37.1516 15.995ZM46.3165 16.9091L43.8374 24H41.6215L39.1425 16.9091H41.2199L42.6926 21.9826H42.7664L44.2345 16.9091H46.3165ZM50.3259 24.1385C49.5965 24.1385 48.9687 23.9908 48.4424 23.6953C47.9192 23.3968 47.516 22.9751 47.2329 22.4304C46.9497 21.8826 46.8081 21.2347 46.8081 20.4869C46.8081 19.7575 46.9497 19.1173 47.2329 18.5664C47.516 18.0155 47.9146 17.5862 48.4285 17.2784C48.9456 16.9706 49.5519 16.8168 50.2474 16.8168C50.7152 16.8168 51.1507 16.8922 51.5539 17.043C51.9601 17.1907 52.3141 17.4138 52.6157 17.7124C52.9204 18.0109 53.1573 18.3864 53.3266 18.8388C53.4959 19.2881 53.5805 19.8144 53.5805 20.4176V20.9577H47.593V19.739H51.7293C51.7293 19.4558 51.6678 19.205 51.5447 18.9865C51.4215 18.768 51.2507 18.5972 51.0322 18.4741C50.8168 18.3479 50.566 18.2848 50.2797 18.2848C49.9812 18.2848 49.7165 18.354 49.4857 18.4925C49.258 18.628 49.0795 18.8111 48.9502 19.0419C48.8209 19.2696 48.7548 19.5236 48.7517 19.8036V20.9624C48.7517 21.3132 48.8163 21.6164 48.9456 21.8718C49.0779 22.1272 49.2641 22.3242 49.5042 22.4627C49.7442 22.6012 50.0289 22.6705 50.3582 22.6705C50.5767 22.6705 50.7768 22.6397 50.9584 22.5781C51.1399 22.5166 51.2954 22.4242 51.4246 22.3011C51.5539 22.178 51.6524 22.0272 51.7201 21.8487L53.539 21.9688C53.4466 22.4058 53.2574 22.7874 52.9711 23.1136C52.688 23.4368 52.3218 23.6892 51.8724 23.8707C51.4262 24.0492 50.9107 24.1385 50.3259 24.1385ZM54.8639 24V16.9091H56.7705V18.1463H56.8444C56.9736 17.7062 57.1906 17.3738 57.4953 17.1491C57.8 16.9214 58.1508 16.8075 58.5479 16.8075C58.6463 16.8075 58.7525 16.8137 58.8664 16.826C58.9803 16.8383 59.0803 16.8552 59.1665 16.8768V18.6218C59.0741 18.5941 58.9464 18.5695 58.7833 18.5479C58.6202 18.5264 58.4709 18.5156 58.3355 18.5156C58.0462 18.5156 57.7877 18.5787 57.5599 18.7049C57.3353 18.828 57.1568 19.0004 57.0244 19.2219C56.8952 19.4435 56.8305 19.699 56.8305 19.9883V24H54.8639Z" fill="white"/>
<path d="M40 90C52.1503 90 62 80.1503 62 68C62 55.8497 52.1503 46 40 46C27.8497 46 18 55.8497 18 68C18 80.1503 27.8497 90 40 90Z" fill="white"/>
<path d="M40 87C50.4934 87 59 78.4934 59 68C59 57.5066 50.4934 49 40 49C29.5066 49 21 57.5066 21 68C21 78.4934 29.5066 87 40 87Z" fill="#2563EB"/>
<path d="M40 77C44.9706 77 49 72.9706 49 68C49 63.0294 44.9706 59 40 59C35.0294 59 31 63.0294 31 68C31 72.9706 35.0294 77 40 77Z" stroke="white" stroke-width="2" stroke-linecap="round" stroke-linejoin="round"/>
<path d="M39.9998 70.1998C41.2148 70.1998 42.1998 69.2148 42.1998 67.9998C42.1998 66.7848 41.2148 65.7998 39.9998 65.7998C38.7848 65.7998 37.7998 66.7848 37.7998 67.9998C37.7998 69.2148 38.7848 70.1998 39.9998 70.1998Z" fill="white" stroke="white" stroke-width="2" stroke-linecap="round" stroke-linejoin="round"/>
<path d="M40 65.8V60" stroke="white" stroke-width="2" stroke-linecap="round" stroke-linejoin="round"/>
<path d="M37.8002 68.5996L33.2002 71.7996" stroke="white" stroke-width="2" stroke-linecap="round" stroke-linejoin="round"/>
<path d="M42.2002 68.5996L46.8002 71.7996" stroke="white" stroke-width="2" stroke-linecap="round" stroke-linejoin="round"/>
</svg>
